<?xml version="1.0" ?><!DOCTYPE svg  PUBLIC '-//W3C//DTD SVG 1.1//EN'  'http://www.w3.org/Graphics/SVG/1.1/DTD/svg11.dtd'><svg enable-background="new 0 0 512 512" id="Layer_1" version="1.1" viewBox="0 0 512 512" xml:space="preserve" xmlns="http://www.w3.org/2000/svg" xmlns:xlink="http://www.w3.org/1999/xlink"><linearGradient gradientUnits="userSpaceOnUse" id="SVGID_1_" x1="256" x2="256" y1="512" y2="-9.094947e-013"><stop offset="0" style="stop-color:#00C9FF"/><stop offset="1" style="stop-color:#92FE9D"/></linearGradient><circle cx="256" cy="256" fill="url(#SVGID_1_)" r="256"/><g><path d="M356.3,137.8H155.7c-9.9,0-17.9,8-17.9,17.9v200.6c0,9.9,8,17.9,17.9,17.9h200.6c9.9,0,17.9-8,17.9-17.9   V155.7C374.2,145.9,366.1,137.8,356.3,137.8z M155.7,148.1h200.6c4.2,0,7.7,3.4,7.7,7.7v112.4l-53.2-53.2c-2-2-5.2-2-7.2,0   l-80.3,80.3l-33.4-33.4c-0.2-0.2-0.4-0.3-0.6-0.4c-0.3-0.2-0.5-0.4-0.8-0.6c-0.3-0.1-0.6-0.2-0.9-0.3c-0.3-0.1-0.6-0.2-1-0.2   c-0.3,0-0.6,0-1,0.1c-0.3,0-0.6,0.1-0.9,0.2c-0.3,0.1-0.6,0.3-0.9,0.5c-0.2,0.1-0.5,0.2-0.7,0.4l-34.8,28.8V155.7   C148.1,151.5,151.5,148.1,155.7,148.1z M356.3,363.9H155.7c-4.2,0-7.7-3.4-7.7-7.7v-52.7l37.8-31.3l33.8,33.8c1,1,2.3,1.5,3.6,1.5   c1.3,0,2.6-0.5,3.6-1.5l80.3-80.3l56.8,56.8v73.7C363.9,360.5,360.5,363.9,356.3,363.9z" fill="#FFFFFF"/><path d="M198.6,222.7c14.2,0,25.8-11.6,25.8-25.8s-11.6-25.8-25.8-25.8c-14.2,0-25.8,11.6-25.8,25.8   S184.4,222.7,198.6,222.7z M198.6,181.3c8.6,0,15.6,7,15.6,15.6s-7,15.6-15.6,15.6c-8.6,0-15.6-7-15.6-15.6S190,181.3,198.6,181.3z   " fill="#FFFFFF"/></g></svg>